# xmcd
#
# Track frame offsets: 
#        150
#        25771
#        49875
#        80968
#        109242
#        132013
#        146731
#        169750
#        189961
#        208538
#
# Disc length: 3269 seconds
#
# Revision: 1
# Processed by: cddbd v1.5.2PL0 Copyright (c) Steve Scherf et al.
# Submitted via: ExactAudioCopy v1.3
#
DISCID=8b0cc30a
DTITLE=Fujimundi (Eric Vloeimans, Anton Goudsmit, Harmen Fraanje) - Vl
DTITLE=oeimans, Eric - Summersault
DYEAR=2001
DGENRE=Trumpet
TTITLE0=Morimond
TTITLE1=Summersault
TTITLE2=Saya Terkesan
TTITLE3=Haitu
TTITLE4=Desberato
TTITLE5=Bobski
TTITLE6=FF Dimmen Cowboy
TTITLE7=Cockburn
TTITLE8=Chorizo
TTITLE9=Mon Petit Prince
EXTD=YEAR: 2001
EXTT0=
EXTT1=
EXTT2=
EXTT3=
EXTT4=
EXTT5=
EXTT6=
EXTT7=
EXTT8=
EXTT9=
PLAYORDER=
